<?xml version="1.0" standalone="no"?>
<!DOCTYPE svg PUBLIC "-//W3C//DTD SVG 20010904//EN"
 "http://www.w3.org/TR/2001/REC-SVG-20010904/DTD/svg10.dtd">
<svg version="1.0" xmlns="http://www.w3.org/2000/svg"
 width="512.000000pt" height="512.000000pt" viewBox="0 0 512.000000 512.000000"
 preserveAspectRatio="xMidYMid meet">
<metadata>
Created by potrace 1.14, written by Peter Selinger 2001-2017
</metadata>
<g transform="translate(0.000000,512.000000) scale(0.100000,-0.100000)"
fill="#000000" stroke="none">
<path d="M0 2560 l0 -2560 2560 0 2560 0 0 2560 0 2560 -2560 0 -2560 0 0
-2560z m2830 1364 c246 -40 480 -159 700 -354 l45 -40 -280 -280 -280 -280 -5
82 -5 83 -62 41 c-117 79 -290 117 -433 96 -245 -35 -441 -175 -550 -392 -142
-280 -81 -617 150 -840 155 -150 355 -217 568 -191 219 27 394 131 482 288 51
89 75 83 -310 83 l-340 0 0 330 0 330 687 -2 687 -3 14 -75 c22 -113 21 -430
-1 -550 -34 -183 -114 -382 -215 -535 -97 -146 -295 -317 -467 -403 -314 -156
-731 -180 -1080 -60 -467 160 -813 560 -911 1054 -25 123 -25 385 0 508 99
501 448 899 927 1059 223 75 432 90 679 51z"/>
<path d="M2455 3864 c-185 -28 -252 -46 -385 -102 -415 -175 -716 -567 -780
-1017 -12 -90 -12 -280 0 -370 66 -464 373 -854 811 -1028 179 -72 279 -90
494 -90 251 0 392 31 600 134 324 160 534 447 621 849 15 68 19 126 18 295 -1
116 -5 224 -11 240 l-9 30 -615 0 -614 0 0 -255 0 -255 353 -3 c401 -3 368 7
332 -96 -28 -82 -80 -162 -147 -228 -78 -75 -149 -119 -263 -159 -93 -33 -98
-34 -260 -34 -155 0 -170 2 -245 28 -205 72 -339 187 -462 397 -12 19 -34 73
-49 120 -27 79 -29 96 -28 245 0 150 1 165 28 240 94 266 291 452 556 524 83
23 268 29 350 11 98 -22 248 -97 313 -158 l28 -26 184 184 c102 102 185 187
184 190 0 3 -26 26 -57 51 -170 136 -347 219 -567 264 -78 16 -320 28 -380 19z"/>
</g>
</svg>
